<svg id="Layer_1" data-name="Layer 1" xmlns="http://www.w3.org/2000/svg" viewBox="0 0 293.01 56.59"><defs><style>.cls-1{fill:#fff;}.cls-2{fill:#b62029;}.cls-3{fill:#ea0029;}.cls-4{fill:#690f17;}</style></defs><title>SS_2018_white</title><path class="cls-1" d="M13.59,47.17a16.28,16.28,0,0,0,12.15,5.44c6.26,0,8.46-3.19,8.46-6,0-4-4.4-5.2-9.32-6.48-6.2-1.62-13.38-3.42-13.38-11.29,0-6.36,5.62-11,13.67-11,6,0,10.65,1.91,14.06,5.39l-3.36,4.28A15.07,15.07,0,0,0,24.7,23c-4.28,0-7.23,2.2-7.23,5.44,0,3.47,4.16,4.57,9,5.79C32.75,35.93,40.1,37.9,40.1,46.12c0,6-4.17,11.64-14.59,11.64-6.89,0-11.92-2.49-15.22-6.14Z" transform="translate(-10.29 -11.82)"/><path class="cls-1" d="M57.23,28.41c8.4,0,13.61,6.54,13.61,15.11v1.27H48.72a9.17,9.17,0,0,0,9.5,8.68,11.91,11.91,0,0,0,8.28-3.29l2.43,3.41A15.74,15.74,0,0,1,57.7,57.76c-8.34,0-14.47-5.91-14.47-14.7C43.23,35,49.07,28.41,57.23,28.41ZM48.67,41H65.74c-.11-3.7-2.6-8.34-8.51-8.34C51.62,32.69,49,37.21,48.67,41Z" transform="translate(-10.29 -11.82)"/><path class="cls-1" d="M74.48,18.45h5.21V57.06H74.48Z" transform="translate(-10.29 -11.82)"/><path class="cls-1" d="M89.24,33.68H84.61V29.1h4.63V27.25c0-6,3.53-9.38,8.51-9.38a9.18,9.18,0,0,1,4.58,1.05l-1.22,3.87a5,5,0,0,0-2.49-.63c-2.6,0-4.17,1.73-4.17,5.09V29.1h5.68v4.58H94.45V57.06H89.24Z" transform="translate(-10.29 -11.82)"/><path class="cls-1" d="M166.46,47.17a16.3,16.3,0,0,0,12.16,5.44c6.25,0,8.45-3.19,8.45-6,0-4-4.4-5.2-9.32-6.48-6.19-1.62-13.37-3.42-13.37-11.29,0-6.36,5.61-11,13.66-11,6,0,10.65,1.91,14.07,5.39l-3.36,4.28A15.08,15.08,0,0,0,177.58,23c-4.29,0-7.24,2.2-7.24,5.44,0,3.47,4.17,4.57,9,5.79C185.62,35.93,193,37.9,193,46.12c0,6-4.16,11.64-14.58,11.64-6.89,0-11.93-2.49-15.23-6.14Z" transform="translate(-10.29 -11.82)"/><path class="cls-1" d="M199.17,50.87V33.68h-4.63V29.1h4.63V21.46h5.21V29.1h5.67v4.58h-5.67v16c0,2,.92,3.42,2.72,3.42a4,4,0,0,0,2.83-1.1L211.27,56c-1.1,1-2.73,1.8-5.45,1.8C201.42,57.76,199.17,55.27,199.17,50.87Z" transform="translate(-10.29 -11.82)"/><path class="cls-1" d="M234.71,53.24a13.79,13.79,0,0,1-10,4.52c-6,0-8.91-3-8.91-8.92V29.1h5.21v18c0,4.63,2.31,6,5.9,6a10.09,10.09,0,0,0,7.76-3.94V29.1h5.21v28h-5.21Z" transform="translate(-10.29 -11.82)"/><path class="cls-1" d="M265.21,53.07a11.55,11.55,0,0,1-9.14,4.69c-7.3,0-12.51-5.5-12.51-14.65,0-9,5.21-14.7,12.51-14.7a11.37,11.37,0,0,1,9.14,4.75V18.45h5.21V57.06h-5.21Zm0-15.92A9.64,9.64,0,0,0,257.46,33c-5.21,0-8.45,4.23-8.45,10.07s3.24,10,8.45,10a9.59,9.59,0,0,0,7.75-4.06Z" transform="translate(-10.29 -11.82)"/><path class="cls-1" d="M280.5,63.78a3.87,3.87,0,0,0,4.05-2.72l1.62-3.71L274.65,29.1h5.56L289,51l8.74-21.94h5.61L289.53,62.39c-1.8,4.4-4.87,6-8.92,6a14.52,14.52,0,0,1-3.24-.41l.81-4.68A6.35,6.35,0,0,0,280.5,63.78Z" transform="translate(-10.29 -11.82)"/><polygon class="cls-2" points="121.83 25.27 150.91 25.45 136.22 50.55 107.13 50.37 121.83 25.27"/><polygon class="cls-3" points="92.75 25.1 107.44 0 121.83 25.27 107.13 50.37 92.75 25.1"/><polygon class="cls-4" points="107.44 0 136.52 0.18 150.91 25.45 121.83 25.27 107.44 0"/></svg>